<svg xmlns="http://www.w3.org/2000/svg" viewBox="0 0 1200 630" width="1200" height="630">
  <defs>
    <linearGradient id="bg" x1="0" y1="0" x2="1" y2="1">
      <stop offset="0%" stop-color="#1e2d42"/>
      <stop offset="100%" stop-color="#0d1117"/>
    </linearGradient>
    <linearGradient id="blue" x1="0" y1="0" x2="1" y2="0">
      <stop offset="0%" stop-color="#60a5fa"/>
      <stop offset="100%" stop-color="#3b82f6"/>
    </linearGradient>
    <linearGradient id="panel" x1="0" y1="0" x2="0" y2="1">
      <stop offset="0%" stop-color="#1a2332"/>
      <stop offset="100%" stop-color="#141e2d"/>
    </linearGradient>
  </defs>

  <!-- Ěo -->
  <rect width="1200" height="630" fill="url(#bg)"/>

  <!-- ćtč/b -->
  <rect x="60" y="120" width="480" height="390" rx="12" fill="url(#panel)" opacity="0.95"/>
  <rect x="60" y="120" width="480" height="36" rx="12" fill="#243044"/>
  <rect x="60" y="144" width="480" height="12" fill="#243044"/>
  <text x="80" y="144" font-family="monospace" font-size="11" fill="#8b9cb3" font-weight="600" letter-spacing="1">MARKDOWN</text>

  <!-- č/@!ě‡WL -->
  <rect x="80" y="175" width="160" height="10" rx="3" fill="#3b82f6" opacity="0.9"/>
  <rect x="80" y="200" width="380" height="8" rx="3" fill="#4d6380" opacity="0.7"/>
  <rect x="80" y="218" width="300" height="8" rx="3" fill="#4d6380" opacity="0.5"/>
  <rect x="80" y="245" width="120" height="8" rx="3" fill="#60a5fa" opacity="0.8"/>
  <rect x="80" y="263" width="360" height="8" rx="3" fill="#4d6380" opacity="0.6"/>
  <rect x="80" y="281" width="290" height="8" rx="3" fill="#4d6380" opacity="0.4"/>
  <!-- code block -->
  <rect x="80" y="305" width="400" height="70" rx="6" fill="#0d1117" opacity="0.8"/>
  <rect x="95" y="320" width="80"  height="7" rx="2" fill="#c9241d" opacity="0.8"/>
  <rect x="185" y="320" width="180" height="7" rx="2" fill="#4d6380" opacity="0.6"/>
  <rect x="95" y="337" width="140" height="7" rx="2" fill="#8250df" opacity="0.8"/>
  <rect x="245" y="337" width="100" height="7" rx="2" fill="#0a3069" opacity="0.8"/>
  <rect x="95" y="354" width="60"  height="7" rx="2" fill="#c9241d" opacity="0.8"/>
  <!-- ôL -->
  <rect x="80" y="395" width="200" height="8" rx="3" fill="#4d6380" opacity="0.5"/>
  <rect x="80" y="413" width="310" height="8" rx="3" fill="#4d6380" opacity="0.4"/>
  <rect x="80" y="431" width="250" height="8" rx="3" fill="#4d6380" opacity="0.3"/>
  <rect x="80" y="466" width="380" height="8" rx="3" fill="#4d6380" opacity="0.25"/>

  <!-- ”ť -->
  <rect x="552" y="120" width="4" height="390" rx="2" fill="#2d3a4d"/>

  <!-- ót˝b -->
  <rect x="560" y="120" width="480" height="390" rx="12" fill="#ffffff" opacity="0.97"/>
  <rect x="560" y="120" width="480" height="36" rx="12" fill="#f6f8fa"/>
  <rect x="560" y="144" width="480" height="12" fill="#f6f8fa"/>
  <text x="580" y="144" font-family="sans-serif" font-size="11" fill="#57606a" font-weight="600" letter-spacing="1">PREVIEW</text>

  <!-- ˝gą -->
  <text x="580" y="185" font-family="sans-serif" font-size="18" font-weight="700" fill="#1f2328">Markdown sB˝č/h</text>
  <rect x="580" y="192" width="400" height="1.5" fill="#d0d7de"/>
  <rect x="580" y="208" width="360" height="8" rx="3" fill="#24292f" opacity="0.5"/>
  <rect x="580" y="224" width="290" height="8" rx="3" fill="#24292f" opacity="0.35"/>
  <text x="580" y="258" font-family="sans-serif" font-size="14" font-weight="700" fill="#1f2328">źý®</text>
  <rect x="580" y="264" width="300" height="1" fill="#d0d7de"/>
  <circle cx="590" cy="281" r="3" fill="#3b82f6"/>
  <rect x="600" y="276" width="200" height="7" rx="2" fill="#24292f" opacity="0.5"/>
  <circle cx="590" cy="299" r="3" fill="#3b82f6"/>
  <rect x="600" y="294" width="160" height="7" rx="2" fill="#24292f" opacity="0.4"/>
  <circle cx="590" cy="317" r="3" fill="#3b82f6"/>
  <rect x="600" y="312" width="220" height="7" rx="2" fill="#24292f" opacity="0.35"/>
  <!-- code block preview -->
  <rect x="580" y="340" width="420" height="60" rx="6" fill="#f6f8fa"/>
  <rect x="580" y="340" width="420" height="60" rx="6" fill="none" stroke="#d0d7de" stroke-width="1"/>
  <rect x="595" y="355" width="80"  height="7" rx="2" fill="#c9241d" opacity="0.8"/>
  <rect x="685" y="355" width="150" height="7" rx="2" fill="#57606a" opacity="0.6"/>
  <rect x="595" y="372" width="110" height="7" rx="2" fill="#8250df" opacity="0.8"/>
  <rect x="715" y="372" width="100" height="7" rx="2" fill="#0a3069" opacity="0.8"/>
  <rect x="580" y="420" width="280" height="7" rx="2" fill="#24292f" opacity="0.3"/>
  <rect x="580" y="437" width="360" height="7" rx="2" fill="#24292f" opacity="0.25"/>
  <rect x="580" y="466" width="320" height="7" rx="2" fill="#24292f" opacity="0.2"/>

  <!-- ĺw!ě -->
  <rect x="60" y="76" width="980" height="38" rx="8" fill="#1a2332" opacity="0.95"/>
  <text x="80" y="100" font-family="sans-serif" font-size="14" font-weight="700" fill="#e6edf3">MD Preview</text>
  <rect x="490" y="84" width="22" height="22" rx="5" fill="#243044"/>
  <rect x="518" y="84" width="22" height="22" rx="5" fill="#243044"/>
  <rect x="546" y="84" width="22" height="22" rx="5" fill="#243044"/>
  <rect x="850" y="84" width="60" height="22" rx="5" fill="#3b82f6"/>
  <text x="863" y="99" font-family="sans-serif" font-size="10" font-weight="600" fill="#fff">/ú PDF</text>

  <!-- ÁL'W -->
  <text x="600" y="570" text-anchor="middle"
        font-family="-apple-system, BlinkMacSystemFont, 'Segoe UI', sans-serif"
        font-size="52" font-weight="900" letter-spacing="-1">
    <tspan fill="#f0f6fc">MD</tspan><tspan fill="url(#blue)"> Preview</tspan>
  </text>
  <text x="600" y="600" text-anchor="middle"
        font-family="sans-serif" font-size="16" fill="#8b9cb3" letter-spacing="0.5">
    Ú
 Markdown sB˝č/hű/ú PDFű;LŰűA- / EN
  </text>
</svg>
